PathFileType	4	(X/Y/Z)	RBDS017static.trc
DataRate	CameraRate	NumFrames	NumMarkers	Units	OrigDataRate	OrigDataStartFrame	OrigNumFrames
150.000000	150.000000	4	48	mm	150.000000	18	150
Frame#	Time	L.Ankle			L.Ankle.Medial			L.ASIS			L.GTR			L.Heel.Bottom			L.Heel.Lateral			L.Heel.Top			L.HF			L.Iliac.Crest			L.Knee			L.Knee.Medial			L.MT1			L.MT2			L.MT5			L.PSIS			L.Shank.Bottom.Lateral			L.Shank.Bottom.Medial			L.Shank.Top.Lateral			L.Shank.Top.Medial			L.Thigh.Bottom.Lateral			L.Thigh.Bottom.Medial			L.Thigh.Top.Lateral			L.Thigh.Top.Medial			L.TT			R.Ankle			R.Ankle.Medial			R.ASIS			R.GTR			R.Heel.Bottom			R.Heel.Lateral			R.Heel.Top			R.HF			R.Iliac.Crest			R.Knee			R.Knee.Medial			R.MT1			R.MT2			R.MT5			R.PSIS			R.Shank.Bottom.Lateral			R.Shank.Bottom.Medial			R.Shank.Top.Lateral			R.Shank.Top.Medial			R.Thigh.Bottom.Lateral			R.Thigh.Bottom.Medial			R.Thigh.Top.Lateral			R.Thigh.Top.Medial			R.TT			
		X1	Y1	Z1	X2	Y2	Z2	X3	Y3	Z3	X4	Y4	Z4	X5	Y5	Z5	X6	Y6	Z6	X7	Y7	Z7	X8	Y8	Z8	X9	Y9	Z9	X10	Y10	Z10	X11	Y11	Z11	X12	Y12	Z12	X13	Y13	Z13	X14	Y14	Z14	X15	Y15	Z15	X16	Y16	Z16	X17	Y17	Z17	X18	Y18	Z18	X19	Y19	Z19	X20	Y20	Z20	X21	Y21	Z21	X22	Y22	Z22	X23	Y23	Z23	X24	Y24	Z24	X25	Y25	Z25	X26	Y26	Z26	X27	Y27	Z27	X28	Y28	Z28	X29	Y29	Z29	X30	Y30	Z30	X31	Y31	Z31	X32	Y32	Z32	X33	Y33	Z33	X34	Y34	Z34	X35	Y35	Z35	X36	Y36	Z36	X37	Y37	Z37	X38	Y38	Z38	X39	Y39	Z39	X40	Y40	Z40	X41	Y41	Z41	X42	Y42	Z42	X43	Y43	Z43	X44	Y44	Z44	X45	Y45	Z45	X46	Y46	Z46	X47	Y47	Z47	X48	Y48	Z48	

19	0.12	707.3388671875	114.1044692993164	1037.806396484375	734.6558837890625	125.065071105957	1120.572387695313	861.4016723632813	1078.510009765625	1088.727783203125	783.3646240234375	992.3579711914063	1038.641479492188	643.2255859375	41.26434707641602	1078.224365234375	664.90283203125	61.28727722167969	1042.462890625	650.0734252929688	87.46320343017578	1080.337890625	773.4331665039063	511.4952697753906	1047.975463867188	787.3109130859375	1169.932739257813	1051.012451171875	776.3372192382813	566.1896362304688	1055.074462890625	768.9000854492188	551.8555908203125	1175.055541992188	865.0859985351563	63.68284225463867	1123.911010742188	869.3490600585938	68.12007904052734	1074.831665039063	834.9681396484375	50.31536483764648	1013.896545410156	681.9923706054688	1137.590454101563	1175.267944335938	718.6409301757813	209.2490997314453	1036.054443359375	676.2003784179688	210.8067932128906	1071.088134765625	716.70068359375	289.6969909667969	1030.611083984375	675.2191772460938	291.6394653320313	1064.9326171875	787.7418823242188	695.0147094726563	1035.394287109375	721.9691162109375	686.5640869140625	1065.180786132813	767.4751586914063	803.8140258789063	1031.947875976563	708.7891235351563	796.26708984375	1065.801391601563	827.2403564453125	482.2510375976563	1089.8681640625	710.6239013671875	109.944091796875	1413.931274414063	732.4221801757813	122.6385650634766	1330.078369140625	851.1194458007813	1074.137817382813	1373.678466796875	775.9669189453125	986.634033203125	1417.1650390625	641.3740844726563	43.58722305297852	1370.161376953125	666.895263671875	65.27292633056641	1409.65380859375	651.6554565429688	90.36729431152344	1370.472045898438	767.918701171875	507.5263671875	1399.69384765625	789.1278076171875	1159.85498046875	1410.3037109375	773.4027099609375	563.6602172851563	1392.18359375	778.36669921875	548.2239379882813	1272.06640625	863.0487670898438	65.37171936035156	1329.1171875	872.60400390625	69.99527740478516	1371.621826171875	830.9293212890625	51.40141296386719	1442.2607421875	680.6150512695313	1135.132568359375	1277.277099609375	712.89111328125	208.5210113525391	1414.074340820313	675.6240844726563	212.8914337158203	1379.118041992188	715.2827758789063	293.3226013183594	1420.294555664063	674.4800415039063	293.5693969726563	1385.570190429688	770.2259521484375	689.4319458007813	1408.802368164063	708.4384765625	682.630126953125	1368.779174804688	750.7576904296875	797.8313598632813	1412.897705078125	695.6416625976563	791.5913696289063	1370.89111328125	825.989501953125	479.6109008789063	1357.930908203125	
20	0.1266666666666667	707.3506469726563	114.1069717407227	1037.80712890625	734.6580200195313	125.0728149414063	1120.567138671875	861.4129638671875	1078.50439453125	1088.760864257813	783.3563232421875	992.3567504882813	1038.665161132813	643.2251586914063	41.26435470581055	1078.231323242188	664.9020385742188	61.29161071777344	1042.466064453125	650.0641479492188	87.46356964111328	1080.354858398438	773.4259643554688	511.4992065429688	1047.994873046875	787.2924194335938	1169.936889648438	1051.053344726563	776.3228149414063	566.1834106445313	1055.101684570313	768.8917236328125	551.8538818359375	1175.079956054688	865.0955200195313	63.67919158935547	1123.90966796875	869.356201171875	68.12101745605469	1074.830322265625	834.9757080078125	50.31189346313477	1013.896545410156	681.9808959960938	1137.591918945313	1175.299194335938	718.6394653320313	209.2454528808594	1036.072265625	676.194091796875	210.8052978515625	1071.10546875	716.6873168945313	289.7001647949219	1030.629516601563	675.2158813476563	291.6333618164063	1064.95361328125	787.7297973632813	694.9990234375	1035.42041015625	721.9696044921875	686.5634765625	1065.205810546875	767.4650268554688	803.8068237304688	1031.97021484375	708.7734375	796.2723999023438	1065.830688476563	827.235595703125	482.2539978027344	1089.898681640625	710.61962890625	109.9489440917969	1413.937744140625	732.4151000976563	122.6449203491211	1330.080444335938	851.1116333007813	1074.137084960938	1373.702026367188	775.8507080078125	986.6184692382813	1416.746948242188	641.37841796875	43.58790969848633	1370.167114257813	666.8965454101563	65.27201843261719	1409.653442382813	651.6547241210938	90.36358642578125	1370.470458984375	767.911376953125	507.5062866210938	1399.71142578125	789.125244140625	1159.863037109375	1410.332397460938	773.4013061523438	563.6530151367188	1392.197875976563	778.3632202148438	548.2191772460938	1272.068603515625	863.03857421875	65.37862396240234	1329.112060546875	872.6004028320313	69.96842956542969	1371.626342773438	830.9301147460938	51.40131759643555	1442.263061523438	680.604248046875	1135.127319335938	1277.317626953125	712.8831176757813	208.5414428710938	1414.09326171875	675.62353515625	212.8836822509766	1379.1162109375	715.2880249023438	293.3150939941406	1420.295776367188	674.473876953125	293.5628967285156	1385.5810546875	770.2225952148438	689.429443359375	1408.8203125	708.4284057617188	682.6259765625	1368.80419921875	750.7530517578125	797.8184204101563	1412.928955078125	695.64208984375	791.5803833007813	1370.919067382813	825.9857788085938	479.6002502441406	1357.917724609375	
21	0.1333333333333333	707.336181640625	114.1045913696289	1037.821533203125	734.6492309570313	125.0663070678711	1120.578979492188	861.4055786132813	1078.517456054688	1088.794189453125	783.3566284179688	992.3505249023438	1038.700805664063	643.220458984375	41.25722885131836	1078.235107421875	664.9010009765625	61.28863143920898	1042.467041015625	650.0699462890625	87.46047973632813	1080.349975585938	773.4110717773438	511.5008850097656	1048.01806640625	787.2786254882813	1169.931274414063	1051.099853515625	776.2958984375	566.1845703125	1055.12451171875	768.86865234375	551.8573608398438	1175.102294921875	865.0914306640625	63.67929840087891	1123.904907226563	869.3450317382813	68.128662109375	1074.828247070313	834.9725341796875	50.31848526000977	1013.888916015625	681.96630859375	1137.584228515625	1175.32470703125	718.6287231445313	209.2404174804688	1036.072998046875	676.1968994140625	210.7985229492188	1071.117065429688	716.6800537109375	289.6954956054688	1030.640747070313	675.2073974609375	291.63232421875	1064.964965820313	787.7181396484375	695.00439453125	1035.440307617188	721.9479370117188	686.5657348632813	1065.228881835938	767.4525146484375	803.8062744140625	1031.9970703125	708.7661743164063	796.2708740234375	1065.85205078125	827.2182006835938	482.2484741210938	1089.910400390625	710.625244140625	109.9291305541992	1413.935424804688	732.40771484375	122.6467132568359	1330.075073242188	851.09814453125	1074.136962890625	1373.737915039063	775.833251953125	986.6234741210938	1416.789428710938	641.3798828125	43.57722091674805	1370.169311523438	666.8872680664063	65.26471710205078	1409.656127929688	651.647705078125	90.35711669921875	1370.474853515625	767.9180908203125	507.5108642578125	1399.732543945313	789.1179809570313	1159.834350585938	1410.379272460938	773.3981323242188	563.6422119140625	1392.216430664063	778.3687133789063	548.2247314453125	1272.087036132813	863.03857421875	65.37860870361328	1329.102905273438	872.5962524414063	69.97628784179688	1371.630493164063	830.9300537109375	51.40728378295898	1442.252563476563	680.5888061523438	1135.118530273438	1277.34228515625	712.881591796875	208.52001953125	1414.081298828125	675.6211547851563	212.8760681152344	1379.127319335938	715.2835693359375	293.3121337890625	1420.303466796875	674.478515625	293.560302734375	1385.580444335938	770.2197265625	689.4271850585938	1408.84814453125	708.4359130859375	682.6248779296875	1368.836303710938	750.7518310546875	797.811279296875	1412.951782226563	695.623046875	791.580078125	1370.947631835938	825.9971923828125	479.6044311523438	1357.93505859375	
22	0.14	707.3248291015625	114.0927734375	1037.831665039063	734.6453857421875	125.0610733032227	1120.585083007813	861.3941040039063	1078.516967773438	1088.83349609375	783.325439453125	992.359375	1038.722534179688	643.2198486328125	41.26214599609375	1078.228393554688	664.9025268554688	61.28421783447266	1042.469604492188	650.0661010742188	87.46272277832031	1080.350219726563	773.4067993164063	511.5069580078125	1048.034423828125	787.2496337890625	1169.93505859375	1051.1376953125	776.291748046875	566.1845092773438	1055.130981445313	768.8433837890625	551.865234375	1175.135498046875	865.0946044921875	63.68558502197266	1123.914306640625	869.3456420898438	68.12590789794922	1074.830444335938	834.9765625	50.32059478759766	1013.890563964844	681.952392578125	1137.586181640625	1175.352661132813	718.632568359375	209.2390441894531	1036.090942382813	676.1871948242188	210.7979125976563	1071.13427734375	716.6771240234375	289.6910095214844	1030.650268554688	675.205322265625	291.6314392089844	1064.977294921875	787.700439453125	694.9944458007813	1035.461181640625	721.9387817382813	686.5507202148438	1065.25244140625	767.4393920898438	803.801025390625	1032.021362304688	708.7408447265625	796.2721557617188	1065.87890625	827.2111206054688	482.2435913085938	1089.9296875	710.6221313476563	109.9362411499023	1413.931030273438	732.3853759765625	122.5733795166016	1330.060791015625	851.0849609375	1074.130615234375	1373.765625	775.8282470703125	986.6121826171875	1416.809448242188	641.3739013671875	43.5871467590332	1370.1767578125	666.88134765625	65.26523590087891	1409.65625	651.6494140625	90.35526275634766	1370.486572265625	767.932373046875	507.5134887695313	1399.744873046875	789.1013793945313	1159.8388671875	1410.420654296875	773.418212890625	563.6353149414063	1392.229125976563	778.3711547851563	548.2291870117188	1272.102905273438	863.0341186523438	65.38145446777344	1329.105834960938	872.6087036132813	69.98836517333984	1371.639404296875	830.9324340820313	51.40163040161133	1442.255737304688	680.5794677734375	1135.11767578125	1277.36328125	712.88232421875	208.5297698974609	1414.091918945313	675.6239624023438	212.8820343017578	1379.12646484375	715.2867431640625	293.3019714355469	1420.303588867188	674.4790649414063	293.552978515625	1385.5869140625	770.2235717773438	689.4140625	1408.886840820313	708.4318237304688	682.6187744140625	1368.846923828125	750.7477416992188	797.8106689453125	1412.980346679688	695.6261596679688	791.5667114257813	1370.9814453125	825.997802734375	479.5951843261719	1357.94140625	
